# xmcd
#
# Track frame offsets: 
#        150
#        23169
#        46394
#        67464
#        95846
#        132435
#        153756
#        173170
#        196917
#        219869
#
# Disc length: 3229 seconds
#
# Revision: 3
# Processed by: cddbd v1.5.2PL0 Copyright (c) Steve Scherf et al.
# Submitted via: ExactAudioCopy v1.0b3
#
DISCID=8c0c9b0a
DTITLE=Los Soneros Del Barrio - Siguiendo La Tradición
DYEAR=2003
DGENRE=Salsa
TTITLE0=Canuto
TTITLE1=Ahi Na´ Ma
TTITLE2=Babaila
TTITLE3=Evelio Y La Rumba
TTITLE4=Las Mujeres Son
TTITLE5=Noche Como Boca De Lobo
TTITLE6=Timboro
TTITLE7=Juana Peña
TTITLE8=Soneros De Siempre
TTITLE9=Gandinga
EXTD=YEAR: 2003
EXTT0=
EXTT1=
EXTT2=
EXTT3=
EXTT4=
EXTT5=
EXTT6=
EXTT7=
EXTT8=
EXTT9=
PLAYORDER=
